<svg xmlns="http://www.w3.org/2000/svg" width="1900" height="864" viewBox="0 0 4750 2160"><rect width="100%" height="100%" fill="#0096D5"/><path d="M3785.9 918.953c-27.71.57-29.9.937-29.9 5.014 0 4.352 2.14 4.737 30 5.39 165.38 3.876 344.462 48.563 450.5 112.415 32.415 19.52 61.314 43.146 79.566 65.05 18.656 22.388 33.343 51.73 37.882 75.678 15.35 80.98-37.223 161.46-149.448 228.79-80.003 47.997-190.19 87.056-322 114.142-136.14 27.975-300.69 43.465-471.962 44.427-33.242.18-34.01.23-36.25 2.34-2.985 2.8-2.898 5.35.253 7.42 5.63 3.68 173.17 3.62 270.96-.1 212.6-8.09 391.51-29.94 539.5-65.91 111.43-27.08 202.78-63.47 266.5-106.15 38.54-25.81 68.77-54.85 89.76-86.19 13.61-20.33 26.22-50.55 30.62-73.38 12.59-65.29-4.3-120.32-51.37-167.4-41.95-41.96-105.79-75.48-194.49-102.13-113.33-34.05-278.25-55.94-443.5-58.86-58.52-1.04-70.29-1.1-96.6-.56m-591.49 60.79c-2.19 3.16-10.01 14.3-17.39 24.75-38.7 54.84-77.84 115.95-106.85 166.8-28.22 49.46-33.03 59.77-31.72 68.07 1.28 8.17 10.37 19.04 23.09 27.63 48.02 32.43 160.01 55.83 308.48 64.43 199.39 11.55 395.34-.33 520.5-31.57 53.49-13.35 88.26-28.7 106.31-46.92 8.89-8.97 11.69-15.19 11.69-25.95 0-7.56-.33-9.1-2.97-13.87-26.65-48.13-184.57-83.71-409.31-92.21-39.6-1.5-120.62-.7-148.71 1.47-40.23 3.11-93.64 9.05-100.75 11.21-.96.29-1.75.19-1.75-.22 0-2 48.06-69.06 101.32-141.39 5.87-7.98 10.56-15.18 10.41-16-.23-1.32-15.52-1.53-129.3-1.75l-129.04-.26-3.98 5.75M3490 1192.6c-63.2 2.017-106.416 6.098-147.856 13.964-21.67 4.114-42.634 11.133-48.394 16.205-2.43 2.14-2.19 6.47.5 8.98 11.706 10.92 61 21.45 125.09 26.71 32.467 2.66 58.132 3.53 104.66 3.53 71.106 0 120.053-3.24 168-11.11 35.044-5.76 60.827-14.76 63.42-22.14.827-2.36.56-3.17-1.89-5.73-12.147-12.68-79.172-24.84-160.03-29.03-20.426-1.06-86.282-1.95-103.5-1.4m806.417 460.86c-2.565 1.53-5.57 4.78-8.082 8.74-9.027 14.2-10.2 17.23-7.89 20.38 1.306 1.78 2.864 1.91 22.73 1.88 19.562-.03 21.71-.21 25.99-2.16 2.567-1.17 5.31-3.18 6.1-4.47.788-1.29 3.526-5.69 6.084-9.77 5.18-8.28 5.59-10.6 2.57-14.44l-2.07-2.64-20.68.01c-20.15.01-20.78.07-24.76 2.45M2965 1652.6c-40.87 1.72-47.94 2.317-52 4.388-5.73 2.92-15.48 13.257-20.27 21.5-4.07 6.984-37.98 62.234-57.4 93.5-18.647 30.016-23.34 38.324-23.34 41.31 0 4.26 3.41 8.296 8.763 10.36 4.407 1.7 8.94 1.825 65.236 1.764 63.06-.07 74.98-.66 90.9-4.47 20.7-4.96 36.07-17.07 51.67-40.735 12.35-18.73 14.68-26.02 10.5-32.876-2.41-3.96-10.9-8.2-18.14-9.06l-5.44-.64 7-2.15c23.99-7.39 41.86-25.43 50.74-51.2 2.27-6.57 2.87-9.83 2.51-13.55-1.02-10.64-7.15-14.22-27.9-16.3-14-1.4-65.87-2.55-82.85-1.83m181.5 7.74c-6.7 3.12-15.09 10.98-21.23 19.86-7.45 10.79-44.53 71.1-70.18 114.16-10.75 18.04-12.46 24.61-7.45 28.55 2.41 1.9 3.96 2.07 18.6 2.07 12.99 0 16.64-.32 19.61-1.71 4.5-2.11 13.29-10.71 15.68-15.35.97-1.89 7.02-11.76 13.44-21.94 6.42-10.17 19.93-31.77 30.02-48 10.09-16.22 23.04-36.86 28.77-45.86 13.76-21.63 15.74-27.43 10.93-31.96-2.17-2.04-3.27-2.17-17.75-2.16-14.06.01-15.88.22-20.44 2.34m952-1.71c-15.17.63-34.52 2.42-37.25 3.45-5.07 1.9-10.12 6.08-13.61 11.27-1.9 2.83-21.8 34.82-44.21 71.08-35.07 56.74-40.81 66.57-41.19 70.5-.36 3.79-.06 4.93 1.77 6.58 1.94 1.76 4.16 2.08 18.35 2.66 25.55 1.04 92.85.94 107.3-.16 26.27-2 45.67-6.72 57.86-14.07 3.12-1.88 8.69-6.59 12.38-10.46 7.32-7.69 10.56-12.41 32.6-47.45 30.9-49.15 31.75-50.82 31.88-62.5.12-11.45-4.44-17.8-17.07-23.72-13.06-6.13-20.69-7.01-62.81-7.25-20.9-.12-41.6-.07-46 .11m-1142.26 31.08c-2.62 2.65-6.98 8.86-9.69 13.81-2.72 4.94-6.2 10.87-7.75 13.17-3.2 4.73-3.53 6.83-1.24 7.71 2.61 1 29.44.67 36.33-.45 9.04-1.47 15.97-5.064 21.98-11.43 5.52-5.832 10.08-14.29 10.1-18.71.01-1.48-1.07-3.96-2.4-5.5l-2.41-2.804-20.08-.31-20.08-.31-4.76 4.82m1147.74 2.12c-2.91 1.57-8.52 9.88-33.26 49.285-17.4 27.715-29.65 48.205-29.5 49.35.39 3.04 6.1 3.73 27.75 3.32 32.69-.61 32.21-.21 68.7-57.79 16.85-26.6 16.68-26.255 16.74-33.73.04-5.5-.27-6.546-2.72-9l-2.77-2.774-20.73-.284c-18.76-.25-21.06-.1-24.23 1.61m-441 7.23c-13.03.94-30.33 3.32-39.76 5.46-10.37 2.36-24.26 11.48-24.23 15.91.04 5.22-1.49 5.04 47.54 5.576l45.62.5 1.91 2.36c1.05 1.3 1.91 3.14 1.91 4.1 0 3.216-4.46 8.31-10 11.437l-5.5 3.1-37.5.68c-54.16.98-60.31 1.886-67.62 9.98-3 3.32-22.36 36.56-24.01 41.22-2.43 6.85-1.82 11.12 2.2 15.58 7.47 8.27 22.575 11.317 56.42 11.38 24 .046 35.14-.893 51.85-4.37 30.03-6.25 43.89-14.19 54.906-31.47 12.006-18.83 36.725-60.2 37.84-63.33.72-2.02 1.33-5.92 1.35-8.67.08-9.57-4.853-13.83-19.59-16.93-15.61-3.28-47.64-4.39-73.36-2.53m617.46-.06c-8.7 1.28-15.003 5.68-22.96 16.01-5.04 6.56-54.5 84.83-58.693 92.89-3.56 6.84-3.64 11.37-.29 14.72l2.52 2.52 17.82-.31c26.84-.47 20.36 6.52 72.63-78.31 19.78-32.11 21.53-35.32 21.7-39.865.16-4.26-.67-5.52-4.78-7.24-3.6-1.507-18.96-1.73-27.95-.41m-1056.565.9c-5.64 1.17-12.58 5.76-16.81 11.12-2.14 2.7-10.84 16.06-19.34 29.7-38.6 61.89-36.75 58.56-36.75 66.38 0 8.99 7.64 14.62 23.66 17.41 19.49 3.4 79.45 2.77 97.84-1.03 10.25-2.118 19.95-6.05 24.26-9.83l3.45-3.03-.247 3.95c-.62 10.02.01 10.44 15.59 10.44 18.84 0 21.08-1.36 29.32-17.74 6.92-13.77 5.48-16.39-9.48-17.23-10.03-.56-11.95-1.55-10.74-5.53.33-1.1 9.32-16.53 19.98-34.28 19.883-33.15 22.214-37.5 22.523-42.07.53-7.81-2.56-9.14-21.117-9.14-12.708 0-14.02.18-18.88 2.61-9.42 4.69-15.79 13.14-37.77 50.1-11.37 19.11-21.85 35.57-24.13 37.89-2.22 2.26-6.43 5.29-9.35 6.75-5.11 2.55-5.97 2.65-21.9 2.65-26.67 0-26.686-.08-6.83-32.4 34.33-55.88 34.466-56.13 33.183-61.24-1.19-4.73-4.75-5.84-19.38-6.04-7.43-.1-15.12.15-17.11.56m1177.11.25c-17.36 1.78-32.13 5.43-42 10.39-11.88 5.97-26.53 22.85-34.626 39.9-6.09 12.82-4.34 20.4 5.22 22.62 2.15.5 16.14.913 31.1.93 26.956.02 27.208.04 28.75 2.243 2.027 2.89 1.98 7.7-.093 10.81-3.07 4.59-7.83 9.14-11.85 11.31-3.85 2.08-5.46 2.19-42 2.68-38.99.52-41.39.77-45.75 4.717-2.1 1.9-2.25 6.15-.39 10.56 3.57 8.43 9.25 9.72 45.82 10.423 30.82.59 44.87-.4 60.94-4.29 22.26-5.39 31.38-11.8 45.197-31.76 12.6-18.2 14.8-30.87 6.41-36.86-3.14-2.24-3.98-2.314-31.82-2.8-32.06-.56-31.9-.53-31.9-7.31 0-3.533.61-4.65 4.76-8.65 9.02-8.693 7.81-8.473 49.74-9.04 36.24-.49 37.07-.55 40.63-2.76 8.41-5.24 7.41-15.35-2.02-20.227-5.53-2.86-17.617-3.95-42.62-3.85-13.75.05-28.827.49-33.5.97m167.5.007c-24.187 2.668-41.98 10.665-52.95 23.8-6.177 7.39-36.646 57.51-44.35 72.956-4.03 8.073-4.69 10.25-4.7 15.44 0 5.76.16 6.154 3.4 8.35 7.76 5.26 21.855 6.67 60.385 6.03 32.29-.534 41.81-1.58 56.39-6.185 9.46-2.99 16.64-7.36 19.33-11.77 2.6-4.27 2.53-6.4-.25-7.14-1.24-.33-18.04-.61-37.34-.62-32.18-.015-35.22-.16-36.6-1.766-2.28-2.654-2.79-4.84-1.867-8.056 1.4-4.886 32.92-53.39 37.53-57.75 2.36-2.23 6.08-4.596 8.27-5.25 2.68-.8 13.22-1.196 32.15-1.196 29.76 0 32.496-.36 36.44-4.79 2.51-2.82 3.825-9.04 2.45-11.6-2.86-5.34-9.4-7.91-25.79-10.14-11.53-1.57-39.64-1.74-52.5-.327M3521.38 1702c-14.09 2.07-23.96 6.8-34.24 16.39-7.063 6.6-22 28.427-45.23 66.09-13.15 21.33-16.55 28.81-15.54 34.19 1.08 5.765 3.026 6.34 21.44 6.34 14.76 0 16.92-.22 20.867-2.13 6.56-3.18 13.42-12.225 30.98-40.87 8.59-14.026 18.24-29.754 21.43-34.95 6.204-10.11 11.19-15.85 16.814-19.364 3.2-2 5.18-2.23 23-2.7 21.11-.56 23.56-1.12 27.39-6.286l2.07-2.8-1.98-3.66c-4.51-8.316-15.98-11.28-42.98-11.115-10.45.06-21.26.45-24.03.85m292.77-.09c-5.46.77-13.44 6.94-20.61 15.92-2.93 3.675-10.89 15.68-17.68 26.68-6.79 11-16.38 26.526-21.32 34.5-11.24 18.177-12.6 21.176-12.63 27.92-.02 5.098.24 5.67 4.28 9.55 3.31 3.17 6.04 4.637 11.75 6.32 12.23 3.59 46.68 5.32 65.95 3.31 4.13-.43 7.66-.66 7.85-.51.57.45-13.93 21.63-17.27 25.23-1.69 1.82-4.65 4.294-6.57 5.49-3.48 2.166-3.78 2.178-46.15 1.83-36.94-.3-43.39-.13-48.184 1.27-6.617 1.92-9.67 5.24-9.67 10.503 0 4.38 1.59 6.84 6.674 10.35 4.87 3.36 11.37 4.37 36.836 5.71 23.16 1.22 46.71.153 64.74-2.93 11.95-2.047 31.195-7.736 38.25-11.31 6.09-3.09 17.186-14.3 22.99-23.236 6.12-9.42 36.66-58.986 40.36-65.5 1.407-2.475 11.23-18.38 21.84-35.34 10.607-16.964 19.82-32.626 20.47-34.805 1.72-5.747.29-9.017-4.68-10.71-2.94-1-7.59-1.21-17.87-.8-24.19.96-25.92 2.52-55.176 49.65-11.438 18.42-22.29 35.38-24.12 37.67-2.035 2.56-5.708 5.37-9.478 7.25-6.09 3.04-6.33 3.08-21.84 3.08-13.92 0-15.87-.207-17.34-1.83-.91-1.007-1.65-2.86-1.65-4.127 0-1.265 9.92-18.844 22.04-39.065 12.12-20.22 22.75-38.58 23.62-40.8 2.17-5.52 1.165-8.93-3.166-10.74-3.53-1.48-23.26-1.8-32.25-.533m-425.49 40.49c-6.39 2.334-8.61 4.39-14.42 13.39-6.41 9.92-7.97 14.18-6.32 17.26 1.07 2.01 1.73 2.06 23.29 1.76 28.11-.388 27.45-.12 35.78-14.197 7.35-12.43 7.85-14.11 5.01-16.95-2.04-2.04-3.2-2.18-20.88-2.4-13.84-.18-19.7.12-22.47 1.13m-470.42 12.06c-2.304 1-5.4 4.72-11.4 13.7-4.53 6.78-9.11 13.51-10.17 14.95-1.06 1.44-2.01 4.1-2.097 5.92-.15 2.97.18 3.39 3.33 4.26 5.11 1.4 44.23.1 50.766-1.68 10.415-2.84 20.436-11.2 25.18-21 4.206-8.696 2.49-14.566-4.85-16.6-5.71-1.59-46.923-1.23-50.763.44m706.35 18.56c-7.11 3.55-12.406 8.76-15.694 15.44-3.13 6.352-3.285 9.09-.71 12.31.74.92 6.01 1.25 20.06 1.25 21.79 0 23.55-.47 32.705-8.7 7.76-6.98 10.82-15.24 7.43-20.08-1.52-2.17-2.03-2.223-20.75-2.184-16.88.03-19.66.27-23.043 1.96" fill="#fff" fill-rule="evenodd"/></svg>
