<svg xmlns="http://www.w3.org/2000/svg" width="1900" height="870" viewBox="0 0 1024 467"><path fill="#626d78" d="M0 0h1024v467H0z"/><g fill-opacity=".501961"><path fill="#beced8" d="M410 42l52 488 624-92"/><path d="M1018-62L22 10l624 120"/><path d="M86-62L-62 130 62 530"/><path fill="#0d0a0c" d="M258 494l-128-24 36-460"/><path fill="#d2ffff" d="M342-2l-48 132 56 184"/><path d="M130 106l192 12L142-62"/><path fill="#83c3ff" d="M274 114L82 226l12-124"/><path fill="#daffff" d="M1082 530l-584-48 560-108"/><path fill="#4a4442" d="M946 318L-62 438l480 92"/><path fill="#c3ffff" d="M210 106l68 104-16 180"/><path fill="#deffff" d="M410 134L454-6v300"/><path fill="#b3cadb" d="M706 254l100-128-280-12"/><path fill="#e9ffff" d="M514 506l56-140-56-208"/><path fill="#1f1c24" d="M514 170l-28 176-28-192"/><path d="M-62 22l80 508L86-34"/><path fill="#d1ffff" d="M402 390l-84-164 16 156"/><path fill="#a3b0bb" d="M906 58L762 306l140 28"/><path fill="#262024" d="M610 274l-48-120-20 148"/><path fill="#221e1e" d="M866-14L302 2l512 128"/><path fill="#98d6ff" d="M126 410l4-220-48 60"/><path fill="#85c7ff" d="M738 2l348 16-148-80"/><path fill="#1c1718" d="M350 170l56 224 24-224"/><path fill="#0e0c10" d="M306 290L282-62 238 98"/><path fill="#d1ffff" d="M274 350l-40 56V302"/><path fill="#ade5ff" d="M282 110l104 8-48 116"/><path fill="#3a322d" d="M1086 30L866 18l140 156"/><path fill="#fbffff" d="M574 362l52-176 4 124"/><path fill="#47403e" d="M826 254l-64 36-24-196"/><path fill="#393637" d="M366 486l-96-328v292"/><path fill="#1e1b1e" d="M102 530L82 178-62 426"/><path fill="#468af9" d="M114-46l20 212L70 66"/><path fill="#fbffff" d="M686 350l44-28-76-44"/><path fill="#d4f4fd" d="M434 322l16 48 164-56"/><path fill="#141216" d="M590-62l-96 224-44-176"/><path fill="#1a1615" d="M230 186l-104-8 44 272"/><path fill="#b4e5f8" d="M418 226l12-196 60 100"/><path fill="#302d3c" d="M658 78l-12 172-36-140"/><path fill="#8a7f77" d="M662 418l424-188v132"/><path fill="#deffff" d="M626 162l-116 8 72-56"/><path fill="#0d0c10" d="M134 130L126-6l296-16"/><path fill="#93ddff" d="M350 38l-32 132-4-148"/><path fill="#8ebff7" d="M278 162l-168 4 64-72"/><path fill="#a6d0eb" d="M870 138L850 34l-16 172"/><path fill="#faffff" d="M734 206l-20 140 36-60"/><path fill="#0e0e19" d="M430 114L374-62l-24 164"/><path fill="#8ebdfd" d="M94 218l4 204 40-64"/><path fill="#e7ffff" d="M650 162l92-4-44-48"/><path fill="#2f313f" d="M262 146l36 228 24-196"/><path fill="#41405b" d="M518 342l-24-60 4 92"/><path fill="#111216" d="M258-62L-62 10l592 24"/><path fill="#5b5961" d="M650 250l8 140-84 40"/><path fill="#4c5365" d="M866 6l52 40-68 184"/><path fill="#262529" d="M546-50l188 160-284 4"/><path fill="#effff8" d="M722 218l32 68-116-104"/><path fill="#3b3c40" d="M674-2l236 16-168 140"/><path fill="#585a6f" d="M646 206l-12 44 96 44"/><path fill="#4a474b" d="M462 170l8 148 44-44"/><path fill="#cef" d="M718 530l-160-64 412-68"/><path fill="#141417" d="M34-30l268-8 12 140"/><path fill="#3f3e42" d="M542 174l60 28-32 108"/><path fill="#b5e3fe" d="M270 386l-40-100 32-136"/><path fill="#dcfbfc" d="M458 238l12 104-48-36"/><path fill="#373539" d="M434 314l-80-136-4 148"/><path fill="#e3fdff" d="M514 294l8-160 24 108"/><path fill="#5c5e68" d="M682 166l132 140 4-128"/><path fill="#b8dff8" d="M366 398l36-64-76 16"/><path fill="#66676e" d="M770 402l-228 28 8-76"/><path fill="#b8ebf9" d="M330 158l52-8-48-88"/><path fill="#c8ffff" d="M450 102l-28-56 28-16"/><path fill="#9bafe2" d="M1018 358l68 116-280 8"/><path fill="#111218" d="M82 58l8 220L-38-62"/><path fill="#c2e7f9" d="M542 466V326l-32 72"/><path fill="#97caf0" d="M902 50l-16 112 36-80"/><path fill="#d8f0f2" d="M630 182l-16 84-20-140"/><path fill="#c7e5ee" d="M878 314l-12-72 32-72"/><path fill="#635b54" d="M910 86l176 60-188 132"/><path fill="#3a3c3f" d="M462 374L74 530l-136-96"/><path fill="#181938" d="M230 178l-52-20-44 28"/><path fill="#8b96a7" d="M502 438l196-8-276 92"/><path fill="#cfeff4" d="M438 338l44 20-52-144"/><path fill="#3d4151" d="M650 154l56-68-152 16"/><path fill="#545455" d="M398 278l-16 208 116-44"/><path fill="#6b6669" d="M842 254l20 68 16-128"/><path fill="#d5f4ff" d="M822 310v-44l28-36"/><path fill="#6d96e5" d="M806-62l4 76h276"/><path fill="#c1edfb" d="M774 154l20 24-4-60"/><path fill="#b2d7e4" d="M322 362l32-88-32-108"/><path fill="#747576" d="M702 410l308-52-160-40"/><path fill="#2c2d38" d="M402 278l-40-116h68"/><path fill="#d1eaf0" d="M470 370l136-24 16-48"/><path fill="#5d79b0" d="M330 178h-32l-12-36"/><path fill="#e4fffb" d="M682 210l-20 24v-76"/><path fill="#5d6476" d="M594 306l16-80-68 80"/><path fill="#93bad5" d="M222 366l28-140 12 176"/><path fill="#4d505b" d="M538 242l68 44-20-132"/><path fill="#524e4a" d="M762 222l60 12V110"/><path fill="#95c3f2" d="M110 74l32 88-28 80"/><path fill="#3d3d40" d="M226 210l12 320-80-88"/><path fill="#89b2e4" d="M94 370l32-116 12 164"/><path fill="#3c3c3c" d="M134 346l68 92-64-196"/><path fill="#908f8e" d="M990 386l96-84-320 52"/><path fill="#477dda" d="M82 6l40 32-36 124"/><path fill="#d8ffff" d="M858 126l-8-32-8 60"/><path fill="#324381" d="M546 126l40-24-120 8"/><path fill="#171718" d="M310 70L142-62l-16 176"/><path fill="#b9d9e8" d="M726 142l32 20-32 28"/><path fill="#aecad9" d="M858 190l-32 64 16-136"/><path fill="#6e7078" d="M842 302l4-132 44-24"/><path fill="#272835" d="M302 94l-56 20 16 40"/><path fill="#3d4c70" d="M350 34l24 84-28-4"/><path fill="#98caf3" d="M238 122l4 104-60-120"/><path fill="#484b55" d="M698-2l148 52 60-40"/><path fill="#d5e9ed" d="M798 286v48l-32-28"/><path fill="#c1e4e9" d="M454 94l-48 24 56 128"/><path fill="#4e5977" d="M690 126l28-32-52 4"/><path fill="#595958" d="M334 398l180 8-288 120"/><path fill="#757277" d="M734 394l24-156 16 72"/><path fill="#262523" d="M630 106L390 6l532 24"/><path fill="#dbefef" d="M582 362l-60-36 4-80"/><path fill="#586078" d="M434 210l-16 48-8-80"/><path fill="#d6f4f6" d="M378 362l28 16h-72"/><path fill="#c4e8ee" d="M514 130l76-8-72 80"/><path fill="#384f9f" d="M314 74l-20 32 20 12"/><path fill="#c7f1ef" d="M490 154l-44-44-40 44"/><path fill="#d8f7fa" d="M654 298l8 16 16-48"/><path fill="#4b546c" d="M250 370l128 32-52-40"/><path fill="#daf6f8" d="M650 286l88 40-60 12"/><path fill="#8cc7f8" d="M850 66l16-16-12 60"/><path fill="#5477b1" d="M102 146l32-24 80 16"/><path fill="#383d50" d="M266 218l60 44-16-100"/><path fill="#e7ffff" d="M754 310l-8-72-24 68"/><path fill="#687291" d="M570 382l-28-48 12 104"/><path fill="#3c4e74" d="M418 118l-28-8 36-80"/><path fill="#1c1b1b" d="M138 214l68-20 8 192"/><path fill="#b5ddf1" d="M890 118l-4 68 24-68"/><path fill="#5d637c" d="M634 230l84 32-88 12"/><path fill="#484b56" d="M826 10l124 8-64 56"/><path fill="#717f9a" d="M670 262l-56-116 44 12"/><path fill="#577294" d="M106 354h24l-24-60"/><path fill="#414960" d="M74 298l20-40-28-76"/><path fill="#1d1c1e" d="M314-62h132l-56 196"/><path fill="#cbeef6" d="M478 374l-56-44 72-4"/><path fill="#1e1f1f" d="M-26 414l24 44 156-32"/><path fill="#35373a" d="M422 210l-60 40-12-84"/><path fill="#3a383b" d="M502 154l-32 36 16 92"/><path fill="#7b756f" d="M890 222l196 4-192 88"/><path fill="#606574" d="M662 322l-44 4 112 64"/><path d="M18 418l-80-28L6 150"/><path fill="#424343" d="M170 390l8 80 268-48"/><path fill="#22211e" d="M394 174l-24 116 32 4"/><path fill="#abd0dd" d="M222 350l52 48-4-96"/><path fill="#373634" d="M38 354l-92 68 120 12"/><path fill="#586675" d="M554 278h-44l56-16"/><path fill="#a7d9f3" d="M254 142l4 24-76-16"/><path fill="#5d5e5f" d="M838 342l-60 32 132-28"/><path fill="#5e6b76" d="M530 306l-92 12 48-24"/><path fill="#89c0ff" d="M822-2l224-60-116 72"/><path fill="#656263" d="M858 294l-24 4 20 36"/><path fill="#283041" d="M158 170l88 8-92 20"/><path fill="#afe8f5" d="M286 162l16-8-8-24"/><path fill="#595858" d="M1038 226l-148-88h84"/><path fill="#5e6677" d="M210 402l28-12-16-88"/><path fill="#6c8bb7" d="M422 122l8 52-16 12"/><path fill="#646568" d="M242 422l76 16 80-40"/><path fill="#5c6371" d="M510 122l-48 196 56 8"/><path fill="#0f0d0a" d="M-62-42L50 10l16 304"/><path fill="#b1d2f4" d="M806 434l128 72 8-80"/><path fill="#4c546b" d="M466 122l28-12-36-72"/><path fill="#dafbfd" d="M542 382l-16 64-8-84"/><path fill="#313334" d="M294 386l48-28h-44"/><path fill="#dbffff" d="M354 318l-12 36-4-84"/><path fill="#cce3e4" d="M634 278l-12-104-32 164"/><path fill="#636b92" d="M686 290l32-20-16 40"/><path fill="#525b6b" d="M726 210l72-36-44-16"/><path fill="#bddfe2" d="M790 130l-20 40 28-8"/><path fill="#6a6a68" d="M170 474l276-48-184 92"/><path fill="#929397" d="M698 350l-56 32 128-28"/><path fill="#20242d" d="M106 262l-72 20 36-24"/><path fill="#cce8f1" d="M722 130l-40-12-28 64"/><path fill="#16171a" d="M218 266l-16-28-92 28"/><path fill="#79c0ff" d="M310 66l28-36h-20"/><path fill="#4d4f51" d="M822 118l16 28-48-4"/><path fill="#474849" d="M1086 110l-152 16-32-100"/><path fill="#d1f8fc" d="M242 302l12 68-20-4"/><path fill="#506987" d="M214 206l24 16 28-4"/><path fill="#82807d" d="M766 378l-80 48-128-16"/><path fill="#788a9c" d="M470 342h28l24 24"/><path fill="#5e687e" d="M558 286l-20 24 44-8"/><path fill="#283762" d="M210 86l-52 12 100 20"/><path fill="#3b4251" d="M182 318l72 16-48 4"/><path fill="#c9fdfc" d="M374 134l-84-4 40-16"/><path fill="#687397" d="M714 202h-44l28-52"/><path fill="#485da7" d="M574 158l-28 16 48-4"/><path fill="#e7ffff" d="M334 190l12 60 4-40"/><path fill="#f9ffff" d="M534 210v-32l8 12"/><path fill="#353539" d="M714 202l48-16 44 12"/><path fill="#484b5a" d="M378 294l44 36-72-4"/><path fill="#414346" d="M270 342l48-60-48-128"/><path fill="#ebf7f7" d="M786 286l-16 12 36 4"/><path fill="#1c1b1a" d="M70 474l220-32-180 80"/></g></svg>
