<svg xmlns="http://www.w3.org/2000/svg" width="1840" height="1000" viewBox="0 0 920 500"><path d="M0 250v250h347.626l2.792-2.915c1.536-1.602 5.613-4.302 9.06-6 10.78-5.307 12.617-3.592 4.406 4.116l-5.115 4.81 280.86-.25 280.87-.25.25-249.75L921 0H0v250m.492.5c0 137.5.116 193.6.258 124.67.142-68.932.142-181.432 0-250C.608 56.6.492 113 .492 250.5m371.21-234.868c-1.575 1.575-.64 3.498 1.548 3.188 1.238-.176 2.25-.99 2.25-1.806 0-1.59-2.634-2.547-3.8-1.382m-9.627 9.003c-2.17 2.758-2.727 5.365-1.146 5.365 1.28 0 5.073-4.962 5.073-6.635 0-2.144-1.666-1.606-3.927 1.27m-10.397 2.598c-2.98 2.98-3.43 4.767-1.2 4.767 1.793 0 4.876-4.445 4.294-6.19-.276-.827-1.327-.344-3.094 1.423m3.547 11.515c-.702.24-2.164 2.177-3.25 4.304-3.736 7.325-1.77 9.62 2.593 3.028 2.626-3.968 3-8.133.657-7.332M66.363 45.5c-1.06 2.76.4 4.158 9.796 9.366 9.16 5.078 49.75 33.627 69.18 48.655 5.41 4.19 12.84 9.4 16.5 11.58l6.66 3.96-6-5.63c-3.3-3.1-9.38-8.15-13.5-11.24-8.13-6.06-21.13-16.24-35.74-27.94-5.08-4.07-15.52-11.53-23.2-16.57C67 42.53 67.42 42.74 66.36 45.5m273.888 5.185c-1.5 2.632-1.67 10.316-.22 10.316 1.585 0 2.12-2.28 1.78-7.62-.285-4.46-.417-4.68-1.56-2.69m7.893 3.65c-1.63 1.98-2.62 10.26-1.31 11.07 1.51.94 3.03-2.36 3.32-7.21.28-4.68-.33-5.86-2-3.86m456.54 1.32c-.38.38.04 1.5.93 2.48 1.51 1.67 1.4 2.08-1.67 5.95-3.42 4.33-3.36 6.01.33 8.33 2.21 1.4 3.42-.05 1.98-2.36-.96-1.52-.79-2.35.88-4.48 1.69-2.15 1.9-3.25 1.19-6.25-.85-3.58-2.28-5.01-3.64-3.65m-11.03 2.18c-2.2 2.44-2.15 4.31.09 3.39 2.75-1.13 6.25-3.62 6.25-4.46 0-1.51-4.73-.71-6.34 1.07m-15.85 14.13c-5.38 5.54-7.23 9.04-4.76 9.04 1.02 0 13.16-12.41 13.8-14.12.19-.48-.47-.88-1.45-.88s-4.39 2.69-7.58 5.97m-373.15.51c-1.05 2.73.14 3.53 5.16 3.52 8.74-.03 9.14-3.61.52-4.63-4.16-.49-5.13-.3-5.68 1.12m392.35 1c0 .92.49 1.51 1.08 1.31.59-.2 1.08-.78 1.08-1.31s-.48-1.11-1.07-1.3c-.59-.2-1.07.39-1.07 1.31M346.52 75c-.786 2.475.297 6.254 1.567 5.47.51-.316.928-1.87.928-3.456 0-3.5-1.61-4.8-2.494-2.013m31.94.11c-1.4 2.27 1.52 3.13 9.38 2.77 8.19-.37 9.87-.91 8.71-2.79-.89-1.43-17.21-1.41-18.1.02m-16.65 3.06c-3.75 1.31-5.93 2.68-6.34 4-.35 1.11-.48 2.15-.29 2.32.37.34 12.58-4.49 14.59-5.77 1.82-1.16 1.52-2.69-.5-2.6-.97.05-4.32.98-7.46 2.07m65.65-1.06c-1.17 1.9.96 2.9 8.1 3.81 3.82.49 8.18 1.46 9.7 2.16 1.51.7 3.06.97 3.44.59 1.39-1.39-2.67-3.9-9.32-5.74-7.78-2.15-10.97-2.37-11.94-.81m386 .01c-.37.61.73 2.38 2.44 3.95 2.44 2.23 3.12 3.68 3.14 6.66.03 7.39 3.47 8.1 5.87 1.21.97-2.78.72-3.32-3.74-7.94-4.84-5.02-6.48-5.84-7.7-3.86m-473.22 6.5c.27 6.21.49 6.81 2.3 6.5 2.86-.49 2.85-.45 1.08-6.53-2.36-8.13-3.73-8.12-3.38.04m152.05-.63c-4.17 1.68-2.29 2.65 5.25 2.7 5.42.04 7.5-.3 7.5-1.22 0-2.34-8.22-3.29-12.75-1.47M349 87.09c0 2.437 2.337 2.093 2.823-.416.192-.987-.318-1.667-1.25-1.667-.927 0-1.573.856-1.573 2.084m164.583-1.21c-.918 1.48 7.293 7.13 10.367 7.13 2.817 0 .5-3.24-3.917-5.48-5.57-2.82-5.705-2.85-6.45-1.65M458 87.02c0 1.18 5.908 4.972 7.75 4.98 2.29.01 1.29-2-2-4.01-3.567-2.176-5.75-2.546-5.75-.975m20.5.647c-3.49 1.84-7.5 5.32-7.5 6.51 0 1.194 3.764 1.015 4.525-.216.354-.573 2.405-2.153 4.56-3.513 6.077-3.835 4.77-6.133-1.585-2.783m278.7 4.54c-1.79 1.79-1.456 3.99.55 3.61.962-.185 1.894-1.34 2.07-2.575.35-2.462-.758-2.902-2.62-1.04m-425.754 2.89c-.37.6-.22 1.54.335 2.095 1.48 1.48 4.65.57 5.04-1.44.25-1.28-.33-1.74-2.18-1.74-1.38 0-2.81.49-3.18 1.088m-12 2c-.37.598-.17 1.586.44 2.195 1.33 1.33 6.24-.12 6.87-2.03.53-1.58-6.33-1.736-7.3-.16m213.23-.437c-.36.36.29 2.18 1.44 4.04 1.15 1.86 3.37 6.028 4.94 9.26 3.21 6.62 4.96 8.343 4.94 4.87-.01-4.09-7.75-18.81-9.89-18.81-.42 0-1.06.295-1.42.654m287.5 3.597c.18 1.24.77 2.25 1.32 2.25s1.15-1.01 1.32-2.25c.22-1.546-.19-2.25-1.32-2.25-1.12 0-1.54.704-1.32 2.25m-75.81 1.386c-1.17 1.026-5.83 6.816-10.34 12.866s-9.37 11.69-10.79 12.54c-3.49 2.08-4.75 6.09-3.03 9.67 2.28 4.76 4.93 3.64 6.87-2.9 1.96-6.6 4.52-11 10.92-18.75 6.92-8.39 9.2-11.92 8.84-13.7-.28-1.42-.56-1.39-2.46.26m-442.61 2.48c-2.6 1.94-3.74 4.88-1.9 4.88 1.41 0 7.46-4.41 7.91-5.75.63-1.94-2.94-1.43-6.01.86m518.49 3.52c-.52 1.02-1.23 3.35-1.58 5.18-.53 2.8-.36 3.27 1.11 2.99 2.19-.42 4.13-7.33 2.52-8.94-.79-.79-1.35-.57-2.04.77m-533.31 7.28c-2.36 2.36-3 3.55-2.06 3.86 1.76.58 6.51-4.17 5.92-5.93-.31-.94-1.5-.31-3.86 2.06m426.2 3.55c-2.27 2.46-4.12 5.37-4.12 6.47 0 2.79 1.95 1.73 5.44-2.98l2.94-3.97 2.62 2.5c2.97 2.84 4 3.12 4 1.08 0-1.58-4.72-7.58-5.96-7.58-.43 0-2.64 2.01-4.91 4.48m-599.64 7.65c-9.35 1.58-23.25 4.27-30.89 5.97-7.64 1.7-16.57 3.48-19.85 3.94-6.85.97-7.59 1.42-6.12 3.76 1.72 2.75 7.66 2.55 21.22-.7 6.96-1.67 17.38-3.74 23.15-4.61 5.78-.87 12.87-2.08 15.76-2.7 2.89-.61 5.51-.86 5.82-.55.52.53-4.63 11-8.34 16.96-3.1 4.97-.2 4.28 5.15-1.23 2.91-3 8.07-7.99 11.46-11.09 6.26-5.72 7.65-8.99 4.97-11.67-1.54-1.55-2.13-1.5-22.3 1.92m428.17-.45c-.36.36-.66 2.23-.66 4.13 0 3.78-1.84 11.13-3.17 12.65-.45.52-.83 2.15-.83 3.63 0 1.47-.67 3.23-1.5 3.92-1.91 1.58-1.94 4-.06 4 1.73 0 4.56-3.78 4.56-6.1 0-.91 1.12-4.2 2.5-7.31 2.79-6.33 3.48-15.6 1.16-15.6-.73 0-1.63.3-2 .67m270.41 5.87c-2.46 6.6-2.45 6.47-.61 6.47 1.63 0 6.54-7.76 6.54-10.34 0-.98-.79-1.66-1.93-1.66-1.42 0-2.47 1.45-4 5.54m-537.63-2.78c-2.23 1.56-6.58 8.2-6 9.15 1.02 1.64 3.23.17 5.97-3.97 3.34-5.04 3.35-7.5.03-5.18m426.72 11.78c-1.54 3.38-1.46 4.45.31 4.45 1.61 0 3.54-2.97 3.54-5.43 0-2.48-2.56-1.82-3.84.98m-151.41 1.27c-1.62.19-2.75.93-2.75 1.81 0 1.15 1.07 1.42 4.67 1.18 2.57-.17 4.84-.81 5.04-1.43.42-1.29-2.92-2.04-6.96-1.56m167.65-.02c-1.74 1.14-3.69 10.32-2.46 11.55 1.56 1.56 2.69-.15 3.88-5.85 1.05-5.04.56-7.02-1.43-5.71m87.21 5.21c-3.37 3.73-4.8 7.99-2.69 7.99 1.55 0 8.08-8.24 8.08-10.18 0-2.78-1.42-2.21-5.38 2.18m-703.96 1.75c-.83 3.97 1.34 43.28 2.55 46.25 1.01 2.47 1.04 2.47 1.84.35 1.47-3.85 2.38-44.69 1.06-47.16-1.68-3.15-4.74-2.84-5.44.55m465.33-1.84c0 .51 2.48 2.34 5.5 4.07 3.03 1.73 5.5 3.4 5.5 3.71 0 .31-3.27.27-7.28-.09-5.32-.48-7.76-.3-9.08.66-1.73 1.27-1.71 1.49.39 5.05 2.26 3.84 4.66 5.68 7.4 5.68 2.43 0 1.84-2.52-.94-4-3.19-1.71-3.14-2.13.55-4.23 2.14-1.22 3.55-1.45 4.75-.78 4.01 2.24 9.69 4 12.93 4 2.26 0 4.53.88 6.46 2.5 3.01 2.53 9.82 3.56 9.82 1.48 0-1.31-4.35-2.98-7.75-2.98-1.45 0-3.55-.87-4.69-1.94-2.36-2.21-6.75-5.44-14.34-10.53-5.05-3.39-9.23-4.57-9.23-2.61m-305.64 3.67c-2.54 6.09-2.9 9.45-1.01 9.45 1.83 0 3.27-3.09 4.23-9.06.81-5.08-1.15-5.32-3.21-.39m439.2 3.03c-.34.87-.61 4.28-.61 7.58 0 5.17.24 5.95 1.75 5.66 1.24-.23 1.84-1.47 2.07-4.28.6-7.39-1.53-13.34-3.22-8.95m-463.6 6.7c0 1.58 7.5 3.55 8.75 2.3 1.09-1.09-1.33-2.64-5.09-3.25-2.89-.46-3.67-.27-3.67.95m552.79 5.5c-6.27 6.56-9.38 11.73-7.7 12.77 1.9 1.17 15.91-13.92 15.91-17.15 0-2.79-2.8-1.31-8.21 4.37m-568.04.44c-3.56 2.06-5.06 4.78-2.64 4.78 1.82 0 8.75-4.21 9.3-5.66.78-2.02-2.39-1.6-6.67.88m28.78.73c-.88 1.43.24 3.06 2.1 3.06.87 0 1.37-.7 1.19-1.66-.39-2.01-2.39-2.85-3.29-1.39m329.89 2.18c-.97 1.57 1.57 3.85 7.74 6.96 6.24 3.15 11.83 3.86 11.83 1.51 0-.86-1.53-1.67-3.94-2.07-2.17-.36-6.44-2.17-9.49-4.01-3.11-1.87-5.82-2.92-6.15-2.38m-373.61 7.38c-.63 1.38-.85 2.8-.49 3.16.89.88 4.67-2.62 4.67-4.32 0-2.3-2.98-1.47-4.18 1.16m498.66-1.19c-.4 1-.45 4.6-.11 8 .5 4.83.25 6.96-1.12 9.69-1.52 3.04-2.33 3.57-6.17 4-6.41.72-6.33 2.71.12 3.21 2.92.23 5.82.24 6.46.03 1.88-.62 4.66-9.39 4.52-14.27-.07-2.49-.76-6.32-1.54-8.5-1.15-3.22-1.56-3.63-2.16-2.16M592 181.48c-1.375.795-3.175 1.72-4 2.06-3.69 1.5-4.52 2.332-4.816 4.815-.207 1.73.16 2.65 1.05 2.65 1.95 0 3.766-2.08 3.766-4.312 0-1.69.505-1.83 4.343-1.26 3.426.52 4.83.26 6.66-1.22 1.315-1.06 2.005-2.37 1.597-3.03-.99-1.6-5.582-1.43-8.6.32m180.642 4.28c-3.987 3.23-5.96 6.25-4.076 6.25 2.267 0 8.912-5.19 10.56-8.25 1.625-3.01-1.468-2.06-6.484 2M201.515 189c-.332.54-.864 3.18-1.183 5.868-.662 5.59 1.046 7.927 2.67 3.655 2.017-5.305.785-13.194-1.487-9.52m377.832 5.495c-2.528 1.77-3.77 5.53-1.826 5.53.74 0 2.27-1.187 3.41-2.636 3.32-4.218 2.49-5.743-1.58-2.896m169.46 6.466c-5.23 5.55-5.49 6.04-3.87 7.5 2.01 1.81 4.07 2.05 4.07.47 0-1.253 3.42-5.96 6.84-9.433 2.31-2.34 2.22-4.48-.19-4.48-.68 0-3.76 2.67-6.84 5.93m-66.15 4.89c-2.25 2.49-2.07 3.37.6 2.99 1.45-.21 2.37-1.13 2.57-2.57.39-2.73-.92-2.9-3.16-.42m-119.9 6.62c-4.43 4.08-6.13 7.54-3.69 7.54 1.23 0 10.95-9.91 10.95-11.16 0-1.9-2.76-.52-7.25 3.61m188.25.09c0 .85-.64 2.79-1.42 4.31-1.58 3.06-.67 6.21 1.14 3.94 2.11-2.64 4.35-7.89 3.77-8.83-.95-1.55-3.48-1.13-3.48.58m-619.97 2.7c.04 3.94 3.11 13.16 4.48 13.46 1.22.27.67-12.48-.65-14.97-1.59-3-3.86-2.12-3.82 1.5m70.35-.8c-1.16 3.02 7.19 15.31 9.1 13.4.71-.7-6.67-14.81-7.76-14.84-.43-.01-1.03.63-1.34 1.43m-80.71 3.21c-1.01 1.01-.8 8.85.31 11.77 1.16 3.07 4.61 3.45 5.51.61.34-1.08.1-3.89-.53-6.25-1.56-5.82-3.43-7.99-5.29-6.14m550.97 3.31c-2.26 2.5-3.37 4.57-2.99 5.56.51 1.34.96 1.24 3.07-.73 2.22-2.08 5.28-6.86 5.28-8.26 0-1.51-2.13-.15-5.36 3.42m-523.83 8.27c-6.32 9.49-13.81 22.91-13.81 24.74 0 2.61 3.87-1.93 18.25-21.39 2.53-3.43 3.75-6.14 3.75-8.34 0-5.29-2.27-3.91-8.19 4.99m591.99 1.86c-4.36 4.64-6.22 8.89-3.89 8.89 1.06 0 8.26-8.48 9.98-11.75 2.12-4.05-.96-2.6-6.09 2.86m-523.8 3.75c0 1.58 4.12 6.14 5.54 6.14 1.62 0 .96-2.56-1.35-5.25-1.57-1.83-4.19-2.38-4.19-.89m444.49 2.38c-7.12 9.94-9.9 15.75-7.53 15.75 1.76 0 11.05-14.17 11.05-16.84 0-1.89-1.78-1.34-3.52 1.09m-97.48.04c0 2.33 12.17 12.7 14.91 12.7.6 0 1.1-.68 1.1-1.5s-.41-1.5-.91-1.5-3.45-2.48-6.54-5.5c-5.47-5.35-8.55-6.86-8.55-4.2m-350.88 13.5c-3.82 3.02-12.13 12.88-12.13 14.38 0 2.15 2.92-.02 9.79-7.28 6.53-6.9 8.55-9.97 6.46-9.84-.41.02-2.27 1.25-4.13 2.73m509.67 7.97c-3.41 3.92-5.13 10.25-2.77 10.25.87 0 5.99-9.79 5.99-11.44 0-1.15-1.73-.51-3.21 1.18m-510.61 7.56c-1.71 1.82-2.15 3.47-2.09 7.75l.08 5.43 2.27-5c4.33-9.55 4.22-12.95-.25-8.19m428.35 6.41c-4.34 7.42-5.57 11.27-3.59 11.27 1.73 0 3.91-2.96 7-9.5 5.65-11.95 3.28-13.18-3.4-1.77m-52.51-6.05c.01.45 1.28 3.33 2.84 6.39 1.55 3.06 3.08 6.54 3.39 7.75.32 1.2 1.13 2.18 1.8 2.18 3.09 0-3.03-16.18-6.36-16.82-.92-.18-1.67.05-1.67.5m-468.44 13.5c-2.63 8.34-7.23 19.7-8.56 21.13-1.12 1.21-4.54 2.23-10.35 3.09-9.41 1.39-10.21 1.74-9.31 4.06.71 1.84 7.2 2.07 13 .46 2.12-.59 4.07-.84 4.35-.56.52.51-1.28 9.45-4.87 24.28-1.09 4.48-1.8 9.43-1.59 11l.39 2.85 1.61-3.54c.89-1.95 2.56-7.24 3.72-11.77 3.74-14.63 7.9-24.92 10.36-25.59 3.66-1.01 26.68-2.95 27.32-2.31.33.33-1.03 4.56-3.02 9.4-2.89 7.05-8.6 28.58-8.6 32.45 0 2.25 2.27.43 3.62-2.9.83-2.07 2.12-5.1 2.87-6.75 2.17-4.8 9.59-23.53 11.55-29.17 1.72-4.92 1.72-5.25.06-6.75-2.092-1.9-8.97-2.05-22.73-.52-5.26.58-9.8.83-10.08.55-.29-.29.7-3.86 2.19-7.94s2.55-8.48 2.37-9.79c-.37-2.576-3.58-3.87-4.26-1.72m79.77-.37c-3.86.37-4.47 2.17-3.652 10.85.88 9.36 2.73 8.23 5.77-3.526.9-3.48 1.5-6.62 1.34-6.98-.17-.36-1.72-.52-3.45-.35m507.97 4.04c-1.85 2.97-8.33 19.04-8.33 20.67 0 1.81 2.37 1.96 3.78.24.56-.69 1.72-3.5 2.57-6.25s2.23-6.8 3.06-9c2.42-6.43 1.71-10.125-1.08-5.654m-472.67 2.9c-1.94 3.14-.1 21.51 2.46 24.58l1.814 2.175.02-2.5c.01-1.38-.47-5.65-1.06-9.5-.59-3.85-1.19-8.7-1.34-10.78-.28-3.97-.98-5.44-1.89-3.97m-18.17 8.01c-.33 2.07-1.1 4.65-1.71 5.75-1.84 3.3-6.78 20.61-6.78 23.76 0 5.458 2.31 2.27 4.85-6.692 1.74-6.16 3.024-8.97 4.23-9.286 2.2-.57 2.89-3.18 2.9-11.02.01-4.81-.32-6.25-1.44-6.25-.91 0-1.68 1.41-2.06 3.75m414.84-2c-.34.96-1.9 4.75-3.47 8.42-3.34 7.79-3.69 11.13-1.11 10.656 1.82-.34 7.16-14.08 7.22-18.58.03-2.66-1.77-3.01-2.64-.5m-425.174 4.5c-1.56 5.08-2.2 13.9-1.297 17.75l.82 3.5 1.094-4c1.68-6.13 2.68-20.5 1.43-20.5-.58 0-1.5 1.46-2.05 3.25m23.01-.95c-1.527 1.83-2.676 9.7-1.42 9.7 1.704 0 2.95-2.32 3.623-6.75.65-4.26-.19-5.38-2.21-2.95m373.33 8.95c.37 2.34 1.07 5.82 1.55 7.75.48 1.92 1.14 5.19 1.46 7.25.38 2.41 1.12 3.75 2.09 3.75 1.25 0 1.4-1.07.87-6.25-.93-9.22-3.214-16.75-5.08-16.75-1.27 0-1.43.78-.89 4.25m-375.75 5.97c-.97 2.54.95 15.48 2.88 19.38 2.53 5.11 4.8 5.804 4.14 1.27-.71-4.848-4.33-18.278-5.48-20.34-.8-1.43-1.09-1.49-1.54-.318m394.96 6.15c-2.98 3.21-6.71 10.414-6.71 12.95 0 3.904 3 1.164 6.43-5.88 4.15-8.52 4.26-11.37.28-7.07M219 318.61c0 3.8 4.17 9.555 5.766 7.96.95-.95-2.576-8.074-4.154-8.39-.888-.18-1.614.015-1.614.43m22 3.85c0 .8 1.092 4.46 2.427 8.14 2.41 6.634 4.932 10.376 6.167 9.14.68-.68-4.26-15.36-5.886-17.49-1.29-1.685-2.71-1.58-2.71.207m353.65 1.22c-1.08 1.08-.75 4.84.54 6.13 1.92 1.92 2.8 1.4 2.8-1.68 0-2.88-2.11-5.69-3.35-4.45m93.66 6.43c-2.82 3.4-4.13 15.12-1.5 13.5 1.14-.71 3.48-10.78 3.04-13.07-.31-1.57-.55-1.64-1.54-.44m-87.3 4.16c0 1.82 4.41 12.34 5.93 14.18 3.41 4.11 7.36-.55 6.11-7.22-.44-2.36-.97-4.4-1.17-4.54-.2-.134-1.16-.847-2.12-1.583-1.32-1.01-2.09-1.06-3.12-.206-1.04.87-1.67.78-2.62-.37-1.52-1.83-3.01-1.96-3-.26m-3.11 4.38c-1.88 2.27-2.25 21.37-.41 21.37 2.08 0 2.78-2.86 3.12-12.71.33-9.4-.34-11.51-2.71-8.65m-38.8 6.75c-.87 1.05-.89 1.63-.08 2.13.76.48.55 1.31-.66 2.65-1.19 1.31-1.91 4.1-2.18 8.4-.52 8.2 1.16 8.54 3.42.7.9-3.16 1.88-6.15 2.16-6.63.28-.482 1.99.868 3.78 3 4.45 5.288 5.403 3.61 1.86-3.252-3.43-6.65-6.463-9.2-8.31-6.98m-303.84 7.32c-.686 1.48-1.25 4.29-1.25 6.25.004 4.09 2.497 17.88 3.397 18.78 1.66 1.66 1.9-1.85.84-12.45-.745-7.46-.82-12.07-.207-12.81.9-1.08.362-2.48-.94-2.46-.32.008-1.148 1.22-1.83 2.7m423.91 11.74c-1.12 1.42-2.606 4.82-3.307 7.56-.7 2.734-1.84 4.972-2.53 4.972-1.97 0-2.66 1.94-1.29 3.6.69.83 2.86 2.186 4.82 3.006 1.96.82 4.56 2.428 5.78 3.57 1.31 1.24 2.87 1.83 3.84 1.456 2.3-.88 1.38-2.757-2.61-5.34-8.11-5.24-8.19-5.33-6.58-7.13 1.6-1.79 5.15-12.997 4.36-13.78-.26-.264-1.39.68-2.51 2.1m-152.95 2.19c-1.77.71-1.56 4.336.25 4.336.93 0 1.5-.943 1.5-2.5 0-1.374-.12-2.463-.25-2.42-.14.04-.82.306-1.5.58m46.16 3.72c-.71 1.835 2.4 8.62 3.94 8.62 1.36 0-.08-7.15-1.79-8.86-1.33-1.33-1.57-1.3-2.16.237m-18.91 4.61c-2.52 4.86-7.39 18.01-6.67 17.994 1.52-.037 3.01-1.72 4.98-5.61 3.07-6.05 6.03-14.19 5.39-14.826-1.16-1.15-2.22-.45-3.72 2.44m-12.88 1.26c-.88 3.26-.77 4.75.34 4.75 1.26 0 4.14-5.54 3.32-6.37-1.32-1.32-3.09-.53-3.66 1.62M522 378.9c-.55 1.03-1.31 3.8-1.686 6.15-.524 3.27-.394 4.1.55 3.52 1.214-.75 5.07-8.83 5.07-10.62 0-1.66-2.91-.95-3.934.96m8.667-1.12c-.21.42-.493 6.99-.63 14.61-.2 10.9.02 13.77 1.03 13.43 2.03-.67 3.06-6.55 2.5-14.22-.286-3.88-.53-8.75-.54-10.82-.02-3.34-1.33-5.01-2.37-3m5.81 12.44c-1.86 6.28-1.86 5.82-.01 5.82 1.54 0 3.16-3.2 4.174-8.25.42-2.08.17-2.75-1.03-2.75-1.05 0-2.11 1.76-3.13 5.18m39.05-.95c-2.51 2.3-3.43 3.75-2.67 4.22 1.43.88 7.46-4.81 6.9-6.51-.25-.75-1.87.13-4.23 2.29m-466.91-1.57c-.92.93-.8 10.2.27 20.36.9 8.54 4.43 21.46 6.15 22.52.55.34.92-7.52.92-19.27 0-16.33-.27-20.23-1.56-22.06-1.5-2.14-4.4-2.92-5.77-1.55m388.72 6.76c-1.81 5.76-1.47 7.72 1 5.67 1.18-.98 1.55-.66 2.09 1.79.36 1.64 1.3 3.518 2.09 4.17 1.21 1.01 1.43.48 1.43-3.36 0-2.5-.59-5.142-1.31-5.87-.72-.723-1.29-2.624-1.25-4.22.11-5.08-2.2-4.04-4.05 1.83m44.79-.706c-.5.98-1.15 3.94-1.43 6.58-.43 4.01-.26 4.75 1.07 4.49 1.75-.34 2.92-3.57 3.07-8.49.12-3.71-1.39-5.15-2.71-2.58M692 392.9c0 1.137 10.843 11.1 12.08 11.1 2.262 0-.5-4.582-5.508-9.144-2.98-2.714-6.572-3.784-6.572-1.956m-542.797 1.355c-.603.727-2.038 6.255-3.188 12.284-1.15 6.02-2.488 12.53-2.975 14.46-.486 1.92-1.39 7.77-2.01 13-.617 5.22-1.532 12.87-2.032 17-1.66 13.68-2.328 30-1.23 30 .98 0 2.398-6.65 3.735-17.5 1.71-13.87 3.032-21.67 6.787-40 2.253-11 4.122-22.21 4.153-24.91.058-5-1.246-6.74-3.24-4.34M261 395.53c.002 2.87 2.87 16.51 4.148 19.718 1.152 2.895 2.42 3.546 3.076 1.58.733-2.2-3.755-19.79-5.492-21.526-1.643-1.642-1.732-1.63-1.73.233m13.526-.582c-.92 1.49.578 6.177 1.84 5.763 1.822-.597 2.053-6.717.254-6.717-.827 0-1.77.43-2.094.95m285.32 5.84c-2.698 2.51-3.944 4.45-3.692 5.75.326 1.68 1.107 1.27 5.612-2.94 2.877-2.69 5.232-5.28 5.232-5.75 0-1.99-3.348-.61-7.15 2.93m-44.388.63c-1.724 4.12-1.624 12.69.155 13.27 1.167.38 3.055-15.37 1.973-16.46-.31-.31-1.268 1.12-2.128 3.18m-242.084 5.2c-.978 3.89.27 26.41 1.533 27.68.78.77 1.4.78 2.16.02.77-.77.77-3.3 0-8.78-.58-4.23-1.07-10.82-1.07-14.63 0-6.97-1.38-9.23-2.62-4.3m7.67.77c-.05 2.44 4.61 8.6 6.51 8.6 2.32 0 1.72-1.45-2.51-6.12-3.06-3.4-3.96-3.95-4-2.48m207.77 2.67c-3.74 2.79-6.8 8.08-6.8 11.73 0 4.41 1.73 4.85 2.87.72.54-1.94 2.59-5.41 4.56-7.71 5.19-6.06 4.83-8.81-.61-4.75m15.19 2.96c0 3.75.37 4.97 1.5 4.97 1.11 0 1.5-1.16 1.5-4.4 0-2.98-.48-4.58-1.5-4.97-1.21-.46-1.5.39-1.5 4.4m202-3.06c0 1.08.9 2.44 2 3.03 1.66.89 2 .76 2-.77 0-1.89-1.77-4.24-3.2-4.24-.44 0-.8.89-.8 1.97M546.2 413.5c-1.306 2.87-2.413 3.135-4.18 1-1.585-1.905-4.62-1.94-5.34-.053-.355.92-2.75 1.693-6.587 2.127-3.95.45-7.134 1.5-9.233 3.05-2.99 2.207-3.32 2.255-5.02.72-1.72-1.56-1.82-1.48-1.82 1.45 0 1.7-.45 3.373-1 3.713-1.51.937-1.194 3.5.436 3.5.79 0 1.71-.876 2.05-1.95.34-1.07 1.61-2.254 2.82-2.63 1.21-.374 3.324-1.46 4.7-2.41 1.64-1.135 5.284-1.913 10.603-2.264 6.42-.425 8.96-1.08 12.25-3.153 2.28-1.44 4.14-3.286 4.14-4.105 0-2.39-2.58-1.71-3.82 1.018m-173.61 4.384c-.64 1.026-.08 5.95.77 6.796.37.37 1.26-.13 1.98-1.11 1.22-1.67 1.41-1.613 3.05.89 3.64 5.56 7.61 8.263 7.61 5.18 0-3.945-11.85-14.318-13.43-11.76m336 2.368c-.81 1.24-2.18 3.95-3.05 6.03-1.51 3.62-1.5 3.73.27 2.63 2.45-1.53 6.2-7.1 6.2-9.21 0-2.37-1.69-2.1-3.43.56M396.51 422c-.74 1.194.2 3.017 1.55 3.017 1.22 0 1.23-2.707.01-3.457-.51-.316-1.21-.117-1.56.44m-101.49 4.268c.01 1.238.68 7.2 1.49 13.25s1.22 11.778.92 12.73c-.3.95-.12 2.49.4 3.42.82 1.465 1.16 1.273 2.56-1.43 1.81-3.514 2.12-7.79.61-8.72-.55-.34-1-3.756-1-7.59 0-6.975-1.97-13.91-3.95-13.91-.58 0-1.04 1.012-1.03 2.25m34.62-.48c-.593.958 9.11 8.23 10.984 8.23 2.423 0 1.48-1.67-3.048-5.38-4.27-3.495-6.95-4.458-7.94-2.85M360.5 431c.733 5.326.15 5.953-3.65 3.92-3.923-2.1-3.007.044 2.788 6.524 8.494 9.5 10.176 8.725 5.778-2.658-1.816-4.7-1.59-6.63.613-5.268 1.53.95 7.97 14.432 7.97 16.704 0 .98.73 1.778 1.64 1.778 1.39 0 1.54-.795 1-5.25-.35-2.887-.64-7.613-.64-10.5-.01-5.474-1.52-7.068-2.6-2.75-.35 1.375-.79 2.5-.98 2.5-.2 0-2.46-2.25-5.03-5-2.57-2.75-5.33-5-6.13-5-1.18 0-1.33.973-.77 5m39.5-3.99c0 2.423 3.36 8.99 4.61 8.99 1.79 0 1.77-2.366-.08-5.928-1.45-2.804-4.54-4.886-4.54-3.06m-91 2.765c0 1.528-.7 3.78-1.56 5.002-2.02 2.88-.89 4.93 1.52 2.75 1.62-1.47 2.02-1.45 4.84.16 4.09 2.34 5.19.95 1.95-2.46-1.44-1.51-2.91-3.98-3.29-5.49-.9-3.64-3.46-3.62-3.46.02m194.2.42c-1.92 1.91-1.4 3.53 1.29 4.04 2.82.54 5.03-1.44 4.15-3.73-.7-1.82-3.77-1.99-5.45-.32m-108.15 2.15c-.58 1.53-1.06 3.2-1.06 3.71s-.62.93-1.39.93c-2.28 0-2.61 2.63-.95 7.51 1.74 5.1 4.25 5.79 5.45 1.48 1.04-3.73.99-13.29-.07-14.96-.75-1.18-1.14-.91-1.99 1.31m303.19.32c-2.71 1.89-2.91 3.33-.48 3.33 2.09 0 6.22-2.7 6.22-4.06 0-1.44-3.23-1.03-5.75.73M485 434.44c0 2.79 1.692 4.27 3.18 2.78.674-.67.633-1.7-.123-3.11-1.516-2.83-3.057-2.66-3.057.338m9-1.44c0 .55 1.35 1 3 1s3-.45 3-1-1.35-1-3-1-3 .45-3 1m-162.316 2.75c-.24.42.346 3.12 1.3 6l1.734 5.25h-2.36c-2.867 0-3.21 2.95-.608 5.23 3.912 3.43 12.25 6.63 12.25 4.7 0-1.67-10.334-21.91-11.19-21.91-.38 0-.888.33-1.126.75m76.006 9.77c-.68 4.2.94 9.48 2.908 9.48 1.013 0 1.402-1.36 1.402-4.91 0-2.706-.273-5.63-.607-6.5-1.064-2.775-3.112-1.703-3.703 1.94m276.41 1.55c-2.846 3.845-2.3 4.45 2.292 2.53 2.48-1.04 3.608-2.15 3.608-3.56 0-3.107-3.264-2.54-5.9 1.03m-280.6 17.8c-5.323 3.332-16.822 12.573-17.25 13.86-.673 2.02 2.105 1.44 5.66-1.184 1.815-1.337 5.76-3.637 8.768-5.11 3.008-1.47 5.722-3.334 6.032-4.14.31-.81 1.653-1.883 2.987-2.39 1.333-.507 2.145-1.37 1.804-1.923-.97-1.58-4.72-1.16-8 .89m256.39 5.99c-4.71 4.71-5.14 6.82-.94 4.65 1.62-.84 3.24-2 3.6-2.59.37-.59 1.74-1.48 3.07-1.98 1.32-.5 2.4-1.6 2.4-2.44 0-2.8-4.17-1.59-8.11 2.35m-280.65 12.34c-3.27 1.58-2.75 2.95 1 2.59 2.14-.21 3.36-.91 3.58-2.06.37-1.96-1.21-2.15-4.56-.53m265.82 1.31c-5.26 2.15-12.06 7.51-12.06 9.5 0 1.53 2.62 1.14 4.07-.61.72-.87 3.37-2.62 5.88-3.89 4.3-2.18 8.88-6.13 7.98-6.88-.22-.19-2.85.66-5.84 1.88" fill-rule="evenodd"/></svg>
